@startuml
class "std::reverse_iterator<T *>" as C_0010265202035773861163
class C_0010265202035773861163 {
__
}
class "std::reverse_iterator<T const*>" as C_0014742100438532397765
class C_0014742100438532397765 {
__
}
class "std::integral_constant<std::size_t,N>" as C_0007054821048708548455
class C_0007054821048708548455 {
__
}
class "std::tuple_size" as C_0008445770703431800702
class C_0008445770703431800702 {
__
}
class "std::tuple_size<mystd::array<T,N>>" as C_0011139993691928538022
class C_0011139993691928538022 {
__
}
class "std::tuple_element" as C_0007910875596971839488
class C_0007910875596971839488 {
__
}
class "std::tuple_element<I,mystd::array<T,N>>" as C_0015728023444566563484
class C_0015728023444566563484 {
__
}
class "mystd::array<T,std::size_t N>" as C_0003495212537267695082
class C_0003495212537267695082 {
+operator[](std::size_t index) constexpr : T &
+operator[](std::size_t index) constexpr const : const T &
..
+at(std::size_t index) constexpr const : const T &
+at(std::size_t index) constexpr : T &
+back() constexpr : T &
+back() constexpr const : const T &
+begin() constexpr noexcept : T *
+begin() constexpr const noexcept : const T *
+cbegin() constexpr const noexcept : const T *
+cend() constexpr const noexcept : const T *
+crbegin() constexpr const noexcept : const_reverse_iterator
+crend() constexpr const noexcept : const_reverse_iterator
+data() constexpr noexcept : T *
+data() constexpr const noexcept : const T *
+empty() constexpr const noexcept : bool
+end() constexpr const noexcept : const T *
+end() constexpr noexcept : T *
+fill(const T & value) constexpr : void
+front() constexpr const : const T &
+front() constexpr : T &
+max_size() constexpr const noexcept : std::size_t
+rbegin() constexpr noexcept : reverse_iterator
+rbegin() constexpr const noexcept : const_reverse_iterator
+rend() constexpr noexcept : reverse_iterator
+rend() constexpr const noexcept : const_reverse_iterator
+size() constexpr const noexcept : std::size_t
+swap(array<T,N> & other) constexpr noexcept : void
__
+elems : T[]
}
class "mystd::array<T,N>" as C_0011848813352213389560
class C_0011848813352213389560 {
__
}
C_0007054821048708548455 <|-- C_0008445770703431800702
C_0011139993691928538022 ..> C_0011848813352213389560
C_0011139993691928538022 ..|> C_0008445770703431800702
C_0007054821048708548455 <|-- C_0011139993691928538022
C_0015728023444566563484 ..> C_0011848813352213389560
C_0015728023444566563484 ..|> C_0007910875596971839488
C_0003495212537267695082 ..> C_0010265202035773861163
C_0003495212537267695082 ..> C_0014742100438532397765
C_0011848813352213389560 ..|> C_0003495212537267695082

'Generated with clang-uml, version 0.6.2
'LLVM version Ubuntu clang version 20.1.2 (0ubuntu1)
@enduml
