@startuml
class "std::integral_constant<bool,__v>" as C_0001816427702415253841
class C_0001816427702415253841 {
__
}
class "std::__bool_constant<__v>" as C_0018035710604841028378
class C_0018035710604841028378 {
__
}
class "std::conditional_t<J == I,Head,typename base::template element_type<J>>" as C_0016200937786445771553
class C_0016200937786445771553 {
__
}
class "std::pair<U1,U2>" as C_0006036117058305161607
class C_0006036117058305161607 {
__
}
class "std::pair<E1,E2>" as C_0012151744653429937662
class C_0012151744653429937662 {
__
}
class "std::integer_sequence<std::size_t,_Idx...>" as C_0004413695994408527183
class C_0004413695994408527183 {
__
}
class "std::integral_constant<std::size_t,0>" as C_0014725183121605935814
class C_0014725183121605935814 {
__
}
class "std::integral_constant<std::size_t,(std::is_same_v<T, Head> ? 1 : 0) + _count_of_type<T, Tail...>::value>" as C_0006336488311021342361
class C_0006336488311021342361 {
__
}
class "std::integral_constant<std::size_t,1 + _index_of_type<T, Tail...>::value>" as C_0001315570010028442556
class C_0001315570010028442556 {
__
}
class "std::tuple<Types...>" as C_0008655816609115850142
class C_0008655816609115850142 {
__
}
class "std::integral_constant<std::size_t,sizeof...(Types)>" as C_0003750140177222282994
class C_0003750140177222282994 {
__
}
class "std::tuple_size" as C_0008445770703431800702
class C_0008445770703431800702 {
__
}
class "std::tuple_size<mystd::tuple<Types...>>" as C_0017918314821337870861
class C_0017918314821337870861 {
__
}
class "std::tuple_element" as C_0007910875596971839488
class C_0007910875596971839488 {
__
}
class "std::tuple_element<0,mystd::tuple<Head,Tail...>>" as C_0003192292142160892512
class C_0003192292142160892512 {
__
}
class "std::tuple_element<I - 1,mystd::tuple<Tail...>>" as C_0003757802968820819687
class C_0003757802968820819687 {
__
}
class "std::tuple_element<I,mystd::tuple<Head,Tail...>>" as C_0015409700379689902382
class C_0015409700379689902382 {
__
}
class "std::pair<T1,T2>" as C_0010566972212906967352
class C_0010566972212906967352 {
__
}
class "std::initializer_list<T>" as C_0002009521558221668981
class C_0002009521558221668981 {
__
}
class "std::reverse_iterator<T *>" as C_0010265202035773861163
class C_0010265202035773861163 {
__
}
class "std::reverse_iterator<T const*>" as C_0014742100438532397765
class C_0014742100438532397765 {
__
}
class "std::uses_allocator<Container,Alloc>" as C_0016992706117299322426
class C_0016992706117299322426 {
__
}
class "mystd::allocator<U>" as C_0016748708514518418720
class C_0016748708514518418720 {
__
}
class "mystd::allocator<T>" as C_0015321581407888265263
class C_0015321581407888265263 {
+allocator() noexcept = default : void
+allocator(const allocator<T> & other) noexcept = default : void
+allocator<U>(const allocator<U> & other) noexcept : void
+~allocator() constexpr = default : void
..
+allocate(std::size_t n) constexpr : T *
+deallocate(T * p, std::size_t) constexpr noexcept : void
__
}
class "mystd::__rebind_helper<Alloc,T,typename=void>" as C_0002408070165783214300
class C_0002408070165783214300 {
__
}
class "mystd::__rebind_helper<Alloc,T,void>" as C_0011345813271112223446
class C_0011345813271112223446 {
__
}
class "mystd::__rebind_helper<Alloc<U,Args...>,T,void>" as C_0014911099526163039047
class C_0014911099526163039047 {
__
}
class "mystd::allocator_traits<Alloc>" as C_0005177463954062989783
class C_0005177463954062989783 {
{static} +allocate(Alloc & a, size_type n) constexpr : pointer
{static} +allocate(Alloc & a, size_type n, const_void_pointer hint) constexpr : pointer
{static} +construct<T,Args...>(Alloc & a, T * p, Args &&... args) constexpr : void
{static} +deallocate(Alloc & a, pointer p, size_type n) constexpr : void
{static} +destroy<T>(Alloc & a, T * p) constexpr : void
{static} -has_construct<A,T,Args...>(int) constexpr : decltype(std::declval<A>().construct(std::declval<T *>(), std::declval<Args>()...) , std::true_type{})
{static} -has_construct<typename,typename,typename...>() constexpr : std::false_type
{static} -has_destroy<A,T>(int) constexpr : decltype(std::declval<A>().destroy(std::declval<T *>()) , std::true_type{})
{static} -has_destroy<typename,typename>() constexpr : std::false_type
{static} +max_size(const Alloc & a) constexpr noexcept : size_type
{static} +select_on_container_copy_construction(const Alloc & a) constexpr : Alloc
{static} -test<A>(int) constexpr : decltype(std::declval<A &>().allocate(std::declval<size_type>(), std::declval<const_void_pointer>()) , std::true_type{})
{static} -test<typename>() constexpr : std::false_type
__
{static} -has_allocate_with_hint : const bool
}
class "mystd::allocator_traits::pointer_helper<A,typename=void>" as C_0013627344072818604639
class C_0013627344072818604639 {
__
}
class "mystd::allocator_traits::pointer_helper<A,void>" as C_0011854523601441756027
class C_0011854523601441756027 {
__
}
class "mystd::allocator_traits::const_pointer_helper<A,typename=void>" as C_0006491363672164570416
class C_0006491363672164570416 {
__
}
class "mystd::allocator_traits::const_pointer_helper<A,void>" as C_0017141435338368187827
class C_0017141435338368187827 {
__
}
class "mystd::allocator_traits::void_pointer_helper<A,typename=void>" as C_0006189296305935353836
class C_0006189296305935353836 {
__
}
class "mystd::allocator_traits::void_pointer_helper<A,void>" as C_0006896081409844807407
class C_0006896081409844807407 {
__
}
class "mystd::allocator_traits::const_void_pointer_helper<A,typename=void>" as C_0001237789010290393571
class C_0001237789010290393571 {
__
}
class "mystd::allocator_traits::const_void_pointer_helper<A,void>" as C_0015172172341742477338
class C_0015172172341742477338 {
__
}
class "mystd::allocator_traits::difference_type_helper<A,typename=void>" as C_0013044454980788841640
class C_0013044454980788841640 {
__
}
class "mystd::allocator_traits::difference_type_helper<A,void>" as C_0006975736719290981252
class C_0006975736719290981252 {
__
}
class "mystd::allocator_traits::size_type_helper<A,typename=void>" as C_0010639000454318164934
class C_0010639000454318164934 {
__
}
class "mystd::allocator_traits::size_type_helper<A,void>" as C_0013163205369506883526
class C_0013163205369506883526 {
__
}
class "mystd::allocator_traits::propagate_on_container_copy_assignment_helper<A,typename=void>" as C_0014047048950084219656
class C_0014047048950084219656 {
__
}
class "mystd::allocator_traits::propagate_on_container_copy_assignment_helper<A,void>" as C_0000574393164601514762
class C_0000574393164601514762 {
__
}
class "mystd::allocator_traits::propagate_on_container_move_assignment_helper<A,typename=void>" as C_0008717403743269902987
class C_0008717403743269902987 {
__
}
class "mystd::allocator_traits::propagate_on_container_move_assignment_helper<A,void>" as C_0001927518705145511906
class C_0001927518705145511906 {
__
}
class "mystd::allocator_traits::propagate_on_container_swap_helper<A,typename=void>" as C_0010487896155004767989
class C_0010487896155004767989 {
__
}
class "mystd::allocator_traits::propagate_on_container_swap_helper<A,void>" as C_0012590618367855557151
class C_0012590618367855557151 {
__
}
class "mystd::allocator_traits::is_always_equal_helper<A,typename=void>" as C_0015823055823356526748
class C_0015823055823356526748 {
__
}
class "mystd::allocator_traits::is_always_equal_helper<A,void>" as C_0009641356165216806911
class C_0009641356165216806911 {
__
}
class "mystd::allocator_traits<mystd::allocator_traits::rebind_alloc<U>>" as C_0010579877909464775221
class C_0010579877909464775221 {
__
}
class "mystd::allocator_arg_t" as C_0006771976982014260903
class C_0006771976982014260903 {
+allocator_arg_t() = default : void
__
}
class "mystd::uses_allocator<T,Alloc,typename=void>" as C_0011292341885230132483
class C_0011292341885230132483 {
__
}
class "mystd::uses_allocator<T,Alloc,void>" as C_0001041169413378610760
class C_0001041169413378610760 {
__
}
class "mystd::ignore_t" as C_0002737982454215773145
class C_0002737982454215773145 {
+operator=<T>(const T &) constexpr const noexcept : const ignore_t &
+operator=<T>(T &&) constexpr const noexcept : const ignore_t &
__
}
class "mystd::_first_type<First,Rest...>" as C_0011246125454162669621
class C_0011246125454162669621 {
__
}
class "mystd::_is_tuple<T>" as C_0015575313824801181969
class C_0015575313824801181969 {
__
}
class "mystd::_tuple_impl<I>" as C_0017577329026324167320
class C_0017577329026324167320 {
+_tuple_impl() : void
+_tuple_impl(const _tuple_impl<I> &) noexcept : void
+_tuple_impl(_tuple_impl<I> &&) noexcept : void
+_tuple_impl<Alloc>(mystd::allocator_arg_t, const Alloc &) noexcept : void
+_tuple_impl<Alloc>(mystd::allocator_arg_t, const Alloc &, const _tuple_impl<I> &) noexcept : void
+_tuple_impl<Alloc>(mystd::allocator_arg_t, const Alloc &, _tuple_impl<I> &&) noexcept : void
..
+operator=(const _tuple_impl<I> &) constexpr noexcept : _tuple_impl<I> &
+operator=(_tuple_impl<I> &&) constexpr noexcept : _tuple_impl<I> &
..
+swap(_tuple_impl<I> & other) : void
__
}
class "mystd::_tuple_impl<I,UTypes...>" as C_0018392915616844547525
class C_0018392915616844547525 {
__
}
class "mystd::_tuple_impl<I,UHead,UTail...>" as C_0006967594067854413885
class C_0006967594067854413885 {
__
}
class "mystd::_tuple_impl<I + 1,Tail...>" as C_0018044393799843985668
class C_0018044393799843985668 {
__
}
class "mystd::_tuple_impl<I,Head,Tail...>" as C_0017725926180368210798
class C_0017725926180368210798 {
+_tuple_impl() : void
+_tuple_impl(const Head & arg, const Tail &... args) : void
+_tuple_impl(const _tuple_impl<I,type-parameter-0-1,type-parameter-0-2...> & other) : void
+_tuple_impl(_tuple_impl<I,type-parameter-0-1,type-parameter-0-2...> && other) : void
+_tuple_impl<UHead,UTail...>(UHead && arg, UTail &&... args) : void
+_tuple_impl<Alloc>(mystd::allocator_arg_t, const Alloc & alloc) : void
+_tuple_impl<Alloc>(mystd::allocator_arg_t, const Alloc & alloc, const Head & arg, const Tail &... args) : void
+_tuple_impl<Alloc,UHead,UTail...>(mystd::allocator_arg_t, const Alloc & alloc, UHead && arg, UTail &&... args) : void
+_tuple_impl<Alloc>(mystd::allocator_arg_t, const Alloc & alloc, const _tuple_impl<I,type-parameter-0-1,type-parameter-0-2...> & other) : void
+_tuple_impl<Alloc>(mystd::allocator_arg_t, const Alloc & alloc, _tuple_impl<I,type-parameter-0-1,type-parameter-0-2...> && other) : void
+_tuple_impl<Alloc,UTypes...>(mystd::allocator_arg_t, const Alloc & alloc, const _tuple_impl<I,UTypes...> & other) : void
+_tuple_impl<Alloc,UTypes...>(mystd::allocator_arg_t, const Alloc & alloc, _tuple_impl<I,UTypes...> && other) : void
..
+operator=(const _tuple_impl<I,type-parameter-0-1,type-parameter-0-2...> & other) constexpr : _tuple_impl<I,type-parameter-0-1,type-parameter-0-2...> &
+operator=(_tuple_impl<I,type-parameter-0-1,type-parameter-0-2...> && other) constexpr noexcept : _tuple_impl<I,type-parameter-0-1,type-parameter-0-2...> &
..
+operator=<UHead,UTail...>(const _tuple_impl<I,UHead,UTail...> & other) constexpr : _tuple_impl<I, type-parameter-0-1, type-parameter-0-2...> &
+operator=<UHead,UTail...>(_tuple_impl<I,UHead,UTail...> && other) constexpr noexcept : _tuple_impl<I, type-parameter-0-1, type-parameter-0-2...> &
..
+get<std::size_t J>() constexpr : decltype(auto)
+get<std::size_t J>() constexpr const : decltype(auto)
+get<std::size_t J>() constexpr : decltype(auto)
+get<std::size_t J>() constexpr const : decltype(auto)
+swap(_tuple_impl<I,type-parameter-0-1,type-parameter-0-2...> & other) constexpr noexcept : void
__
+head : Head
}
class "mystd::tuple<UTypes...>" as C_0016917151066514326526
class C_0016917151066514326526 {
__
}
class "mystd::_tuple_impl<0,Types...>" as C_0004585121784158289985
class C_0004585121784158289985 {
__
}
class "mystd::tuple<Types...>" as C_0007846361155000118001
class C_0007846361155000118001 {
+tuple<Alloc>(mystd::allocator_arg_t, const Alloc & a) : void
+tuple<Alloc>(mystd::allocator_arg_t, const Alloc & a, tuple<Types...> && other) : void
+tuple<Alloc>(mystd::allocator_arg_t, const Alloc & a, const tuple<Types...> & other) : void
+tuple<Alloc,U1,U2>(mystd::allocator_arg_t, const Alloc & a, std::pair<U1,U2> && p) : void
+tuple<Alloc,U1,U2>(mystd::allocator_arg_t, const Alloc & a, const std::pair<U1,U2> & p) : void
+tuple<Alloc,UTypes...>(mystd::allocator_arg_t, const Alloc & a, tuple<UTypes...> && other) : void
+tuple<Alloc,UTypes...>(mystd::allocator_arg_t, const Alloc & a, const tuple<UTypes...> & other) : void
+tuple<Alloc,UTypes...>(mystd::allocator_arg_t, const Alloc & a, UTypes &&... args) : void
+tuple<Alloc>(mystd::allocator_arg_t, const Alloc & a, const Types &... args) : void
+tuple() : void
+tuple<U1,U2>(std::pair<U1,U2> && p) : void
+tuple<U1,U2>(const std::pair<U1,U2> & p) : void
+tuple<UTypes...>(tuple<UTypes...> && other) : void
+tuple<UTypes...>(const tuple<UTypes...> & other) : void
+tuple<UTypes...>(UTypes &&... args) : void
+tuple(tuple<Types...> && other) : void
+tuple(const tuple<Types...> & other) : void
+tuple(const Types &... args) : void
..
+operator=(const tuple<Types...> & other) constexpr : tuple<Types...> &
+operator=(tuple<Types...> && other) constexpr noexcept : tuple<Types...> &
..
+operator=<UTypes...>(const tuple<UTypes...> & other) constexpr : tuple<Types...> &
+operator=<UTypes...>(tuple<UTypes...> && other) constexpr : tuple<Types...> &
+operator=<E1,E2>(const std::pair<E1,E2> & p) constexpr : tuple<Types...> &
+operator=<E1,E2>(std::pair<E1,E2> && p) constexpr noexcept : tuple<Types...> &
..
+get<std::size_t J>() constexpr noexcept : decltype(auto)
+get<std::size_t J>() constexpr noexcept : decltype(auto)
+get<std::size_t J>() constexpr const noexcept : decltype(auto)
+get<std::size_t J>() constexpr const noexcept : decltype(auto)
+swap(tuple<Types...> & other) constexpr noexcept : void
{static} -tuple_equal_impl<std::size_t... I>(const tuple<Types...> & a, const tuple<Types...> & b, std::index_sequence<I...>) constexpr : _Bool
{static} -tuple_three_way_impl<std::size_t... I>(const tuple<Types...> & a, const tuple<Types...> & b, std::index_sequence<I...>) constexpr : std::common_comparison_category_t<decltype(a.get<I>() <=> b.get<I>())...>
__
+_impl : _tuple_impl<0,Types...>
}
class "mystd::tuple< >" as C_0006176151180390418394
class C_0006176151180390418394 {
+tuple() noexcept = default : void
+tuple(const mystd::tuple<> &) noexcept = default : void
+tuple(mystd::tuple<> &&) noexcept = default : void
..
+operator=(const mystd::tuple<> &) constexpr noexcept = default : mystd::tuple<> &
+operator=(mystd::tuple<> &&) constexpr noexcept = default : mystd::tuple<> &
..
+swap(mystd::tuple<> &) constexpr noexcept : void
__
}
class "mystd::tuple<Ts...>" as C_0003675474099183729607
class C_0003675474099183729607 {
__
}
class "mystd::_is_tuple<mystd::tuple<Ts...>>" as C_0016000235474621188993
class C_0016000235474621188993 {
__
}
class "mystd::_count_of_type<T>" as C_0004871556556509591042
class C_0004871556556509591042 {
__
}
class "mystd::_count_of_type<T,Head,Tail...>" as C_0014229165540652439733
class C_0014229165540652439733 {
__
}
class "mystd::_index_of_type<T,T,Tail...>" as C_0013991222822472774064
class C_0013991222822472774064 {
__
}
class "mystd::_index_of_type<T,Head,Tail...>" as C_0007056801480898653650
class C_0007056801480898653650 {
__
}
class "mystd::_index_of_type<T>" as C_0013765071306529965971
class C_0013765071306529965971 {
__
}
class "mystd::_tuple_cat_type< >" as C_0010438758993896589363
class C_0010438758993896589363 {
__
}
class "mystd::_tuple_cat_type<mystd::tuple<Ts...>>" as C_0007860105487118631996
class C_0007860105487118631996 {
__
}
class "mystd::tuple<Ts1...>" as C_0011822733698998469195
class C_0011822733698998469195 {
__
}
class "mystd::tuple<Ts2...>" as C_0000448623028243384820
class C_0000448623028243384820 {
__
}
class "mystd::_tuple_cat_type<mystd::tuple<Ts1...>,mystd::tuple<Ts2...>,Rest...>" as C_0013340954093962247441
class C_0013340954093962247441 {
__
}
class "mystd::uses_allocator<std::tuple<Types...>,Alloc,void>" as C_0014223140383782341500
class C_0014223140383782341500 {
__
}
class "mystd::tuple<Head,Tail...>" as C_0005784041472832847311
class C_0005784041472832847311 {
__
}
class "mystd::tuple<Tail...>" as C_0000436666010484558443
class C_0000436666010484558443 {
__
}
class "mystd::is_pair<typename>" as C_0007623966621918428723
class C_0007623966621918428723 {
__
}
class "mystd::is_pair<std::pair<T1,T2>>" as C_0012111562526153508630
class C_0012111562526153508630 {
__
}
class "mystd::vector<T,Allocator=mystd::allocator<T>>" as C_0005661103834296499344
class C_0005661103834296499344 {
+vector() noexcept : void
+vector(const Allocator & alloc_) noexcept : void
+vector(std::size_t count, const Allocator & alloc_ = Allocator()) : void
+vector(std::size_t count, const T & value, const Allocator & alloc_ = Allocator()) : void
+vector(const vector<T,Allocator> & other) : void
+vector(vector<T,Allocator> && other) noexcept : void
+vector(const vector<T,Allocator> & other, const Allocator & alloc_) : void
+vector(std::initializer_list<T> ilist, const Allocator & alloc_ = Allocator()) : void
+vector<std::input_iterator InputIt>(InputIt first, InputIt last, const Allocator & alloc_ = Allocator()) : void
+~vector() constexpr : void
..
+operator=(const vector<T,Allocator> & other) constexpr : vector<T,Allocator> &
+operator=(vector<T,Allocator> && other) constexpr noexcept : vector<T,Allocator> &
..
+operator=(std::initializer_list<T> ilist) constexpr : vector<T,Allocator> &
+operator[](std::size_t index) constexpr : T &
+operator[](std::size_t index) constexpr const : const T &
..
+assign(std::size_t count, const T & value) constexpr : void
+assign(std::initializer_list<T> ilist) constexpr : void
+assign<std::input_iterator InputIt>(InputIt first, InputIt last) constexpr : void
+at(std::size_t index) constexpr : T &
+at(std::size_t index) constexpr const : const T &
+back() constexpr : T &
+back() constexpr const : const T &
+begin() constexpr const noexcept : const_iterator
+begin() constexpr noexcept : iterator
+capacity() constexpr const noexcept : std::size_t
+cbegin() constexpr const noexcept : const_iterator
+cend() constexpr const noexcept : const_iterator
+clear() constexpr noexcept : void
+crbegin() constexpr const noexcept : const_reverse_iterator
+crend() constexpr const noexcept : const_reverse_iterator
+data() constexpr const noexcept : const T *
+data() constexpr noexcept : T *
-deallocate() constexpr : void
-destroy_deallocate() constexpr : void
+emplace<Arg>(const_iterator pos, Arg && arg) constexpr : iterator
+emplace_back<Arg>(Arg && arg) constexpr : T &
+empty() constexpr const noexcept : bool
+end() constexpr const noexcept : const_iterator
+end() constexpr noexcept : iterator
+erase(const_iterator first, const_iterator last) constexpr : iterator
+erase(const_iterator pos) constexpr : iterator
+front() constexpr const : const T &
+front() constexpr : T &
+get_allocator() constexpr const noexcept : allocator_type
+insert(const_iterator pos, std::size_t count, const T & value) constexpr : iterator
+insert<std::input_iterator InputIt>(const_iterator pos, InputIt first, InputIt last) constexpr : iterator
+insert(const_iterator pos, std::initializer_list<T> ilist) constexpr : iterator
+insert(const_iterator pos, T && value) constexpr : iterator
+insert(const_iterator pos, const T & value) constexpr : iterator
+max_size() constexpr const noexcept : std::size_t
+pop_back() constexpr : void
+push_back(const T & value) constexpr : void
+push_back(T && value) constexpr : void
+rbegin() constexpr noexcept : reverse_iterator
+rbegin() constexpr const noexcept : const_reverse_iterator
+rend() constexpr const noexcept : const_reverse_iterator
+rend() constexpr noexcept : reverse_iterator
+reserve(std::size_t new_cap) constexpr : void
+resize(std::size_t new_size) constexpr : void
+resize(std::size_t new_size, const T & value) constexpr : void
+shrink_to_fit() constexpr : void
+size() constexpr const noexcept : std::size_t
+swap(vector<T,Allocator> & other) constexpr noexcept : void
-transfer_elements<_Bool UseMove>(T * new_elems, std::size_t count) constexpr : void
__
-alloc : Allocator
-cap : std::size_t
-elems : T *
-sz : std::size_t
}
class "mystd::priority_queue<T,Container=mystd::vector<T>,Compare=std::less<typename Container::value_type>>" as C_0012128443205211338966
class C_0012128443205211338966 {
+priority_queue<Alloc>(const Alloc & alloc) : void
+priority_queue<std::input_iterator InputIt,Alloc>(InputIt first, InputIt last, const Compare & compare, Container && cont, const Alloc & alloc) : void
+priority_queue<std::input_iterator InputIt,Alloc>(InputIt first, InputIt last, const Compare & compare, const Container & cont, const Alloc & alloc) : void
+priority_queue<std::input_iterator InputIt,Alloc>(InputIt first, InputIt last, const Compare & compare, const Alloc & alloc) : void
+priority_queue<std::input_iterator InputIt,Alloc>(InputIt first, InputIt last, const Alloc & alloc) : void
+priority_queue<Alloc>(priority_queue<T,Container,Compare> && other, const Alloc & alloc) : void
+priority_queue<Alloc>(const priority_queue<T,Container,Compare> & other, const Alloc & alloc) : void
+priority_queue<Alloc>(const Compare & compare, Container && cont, const Alloc & alloc) : void
+priority_queue<Alloc>(const Compare & compare, const Container & cont, const Alloc & alloc) : void
+priority_queue<Alloc>(const Compare & compare, const Alloc & alloc) : void
+priority_queue() : void
+priority_queue<std::input_iterator InputIt>(InputIt first, InputIt last, const Compare & compare, Container && cont) : void
+priority_queue<std::input_iterator InputIt>(InputIt first, InputIt last, const Compare & compare, const Container & cont) : void
+priority_queue<std::input_iterator InputIt>(InputIt first, InputIt last, const Compare & compare = Compare()) : void
+priority_queue(priority_queue<T,Container,Compare> && other) noexcept : void
+priority_queue(const priority_queue<T,Container,Compare> & other) : void
+priority_queue(const Compare & compare, Container && cont) : void
+priority_queue(const Compare & compare, const Container & cont) : void
+priority_queue(const Compare & compare) : void
+~priority_queue() constexpr = default : void
..
+operator=(const priority_queue<T,Container,Compare> & other) : priority_queue<T,Container,Compare> &
+operator=(priority_queue<T,Container,Compare> && other) noexcept : priority_queue<T,Container,Compare> &
..
+emplace<Args...>(Args &&... args) : reference
+empty() const : bool
+pop() : void
+push(const value_type & value) : void
+push(value_type && value) : void
+size() const : size_type
+swap(priority_queue<T,Container,Compare> & other) noexcept : void
+top() const : const_reference
__
#c : Container
#comp : Compare
}
class "mystd::priority_queue<T,Compare,Container>" as C_0010909994763714669153
class C_0010909994763714669153 {
__
}
class "mystd::uses_allocator<mystd::priority_queue<T,Compare,Container>,Alloc,void>" as C_0011962857980239041894
class C_0011962857980239041894 {
__
}
class "mystd::_tuple_impl<std::size_t I,Types...>" as C_0008150736482356542657
class C_0008150736482356542657 {
__
}
class "mystd::_tuple_cat_type<Tuples...>" as C_0009552000468780173891
class C_0009552000468780173891 {
__
}
class "mystd::_index_of_type<T,Types...>" as C_0015577773856053152220
class C_0015577773856053152220 {
__
}
class "mystd::_count_of_type<T,Types...>" as C_0018442359175494723964
class C_0018442359175494723964 {
__
}
class "<U,Args...>" as C_0014318201171416082367
class C_0014318201171416082367 {
__
}
C_0012151744653429937662 ..|> C_0006036117058305161607
C_0003750140177222282994 <|-- C_0008445770703431800702
C_0017918314821337870861 ..> C_0007846361155000118001
C_0017918314821337870861 ..|> C_0008445770703431800702
C_0003750140177222282994 <|-- C_0017918314821337870861
C_0003192292142160892512 ..> C_0005784041472832847311
C_0003192292142160892512 ..|> C_0007910875596971839488
C_0003757802968820819687 ..> C_0000436666010484558443
C_0015409700379689902382 ..> C_0005784041472832847311
C_0015409700379689902382 ..|> C_0007910875596971839488
C_0003757802968820819687 <|-- C_0015409700379689902382
C_0010566972212906967352 ..|> C_0006036117058305161607
C_0016748708514518418720 ..|> C_0015321581407888265263
C_0015321581407888265263 ..> C_0016748708514518418720
C_0011345813271112223446 ..|> C_0002408070165783214300
C_0014911099526163039047 ..> C_0014318201171416082367
C_0014911099526163039047 ..|> C_0011345813271112223446
C_0013627344072818604639 --+ C_0005177463954062989783
C_0011854523601441756027 --+ C_0005177463954062989783
C_0011854523601441756027 ..|> C_0013627344072818604639
C_0006491363672164570416 --+ C_0005177463954062989783
C_0017141435338368187827 --+ C_0005177463954062989783
C_0017141435338368187827 ..|> C_0006491363672164570416
C_0006189296305935353836 --+ C_0005177463954062989783
C_0006896081409844807407 --+ C_0005177463954062989783
C_0006896081409844807407 ..|> C_0006189296305935353836
C_0001237789010290393571 --+ C_0005177463954062989783
C_0015172172341742477338 --+ C_0005177463954062989783
C_0015172172341742477338 ..|> C_0001237789010290393571
C_0013044454980788841640 --+ C_0005177463954062989783
C_0006975736719290981252 --+ C_0005177463954062989783
C_0006975736719290981252 ..|> C_0013044454980788841640
C_0010639000454318164934 --+ C_0005177463954062989783
C_0013163205369506883526 --+ C_0005177463954062989783
C_0013163205369506883526 ..|> C_0010639000454318164934
C_0014047048950084219656 --+ C_0005177463954062989783
C_0000574393164601514762 --+ C_0005177463954062989783
C_0000574393164601514762 ..|> C_0014047048950084219656
C_0008717403743269902987 --+ C_0005177463954062989783
C_0001927518705145511906 --+ C_0005177463954062989783
C_0001927518705145511906 ..|> C_0008717403743269902987
C_0010487896155004767989 --+ C_0005177463954062989783
C_0012590618367855557151 --+ C_0005177463954062989783
C_0012590618367855557151 ..|> C_0010487896155004767989
C_0015823055823356526748 --+ C_0005177463954062989783
C_0009641356165216806911 --+ C_0005177463954062989783
C_0009641356165216806911 ..|> C_0015823055823356526748
C_0010579877909464775221 ..|> C_0005177463954062989783
C_0001816427702415253841 <|-- C_0011292341885230132483
C_0001041169413378610760 ..|> C_0011292341885230132483
C_0018035710604841028378 <|-- C_0001041169413378610760
C_0001816427702415253841 <|-- C_0015575313824801181969
C_0017577329026324167320 ..> C_0006771976982014260903
C_0017577329026324167320 ..|> C_0008150736482356542657
C_0018392915616844547525 ..|> C_0008150736482356542657
C_0006967594067854413885 ..|> C_0018392915616844547525
C_0018044393799843985668 ..|> C_0008150736482356542657
C_0017725926180368210798 ..> C_0006771976982014260903
C_0017725926180368210798 ..> C_0018392915616844547525
C_0017725926180368210798 ..> C_0006967594067854413885
C_0018044393799843985668 <|-- C_0017725926180368210798
C_0017725926180368210798 ..|> C_0008150736482356542657
C_0016917151066514326526 ..|> C_0007846361155000118001
C_0004585121784158289985 ..|> C_0008150736482356542657
C_0007846361155000118001 ..> C_0016917151066514326526
C_0007846361155000118001 ..> C_0006036117058305161607
C_0007846361155000118001 ..> C_0006771976982014260903
C_0007846361155000118001 ..> C_0012151744653429937662
C_0007846361155000118001 ..> C_0004413695994408527183
C_0007846361155000118001 o-- C_0004585121784158289985 : +_impl
C_0006176151180390418394 ..|> C_0016917151066514326526
C_0003675474099183729607 ..|> C_0016917151066514326526
C_0016000235474621188993 ..> C_0003675474099183729607
C_0016000235474621188993 ..|> C_0015575313824801181969
C_0001816427702415253841 <|-- C_0016000235474621188993
C_0014725183121605935814 <|-- C_0004871556556509591042
C_0004871556556509591042 ..|> C_0018442359175494723964
C_0006336488311021342361 <|-- C_0014229165540652439733
C_0014229165540652439733 ..|> C_0018442359175494723964
C_0014725183121605935814 <|-- C_0013991222822472774064
C_0013991222822472774064 ..|> C_0015577773856053152220
C_0007056801480898653650 ..|> C_0013991222822472774064
C_0001315570010028442556 <|-- C_0007056801480898653650
C_0013765071306529965971 ..|> C_0013991222822472774064
C_0010438758993896589363 ..|> C_0009552000468780173891
C_0007860105487118631996 ..> C_0003675474099183729607
C_0007860105487118631996 ..|> C_0009552000468780173891
C_0011822733698998469195 ..|> C_0016917151066514326526
C_0000448623028243384820 ..|> C_0016917151066514326526
C_0013340954093962247441 ..> C_0011822733698998469195
C_0013340954093962247441 ..> C_0000448623028243384820
C_0013340954093962247441 ..|> C_0009552000468780173891
C_0014223140383782341500 ..> C_0008655816609115850142
C_0014223140383782341500 ..|> C_0001041169413378610760
C_0001816427702415253841 <|-- C_0014223140383782341500
C_0005784041472832847311 ..|> C_0016917151066514326526
C_0000436666010484558443 ..|> C_0016917151066514326526
C_0001816427702415253841 <|-- C_0007623966621918428723
C_0012111562526153508630 ..> C_0010566972212906967352
C_0012111562526153508630 ..|> C_0007623966621918428723
C_0001816427702415253841 <|-- C_0012111562526153508630
C_0005661103834296499344 ..> C_0002009521558221668981
C_0005661103834296499344 ..> C_0010265202035773861163
C_0005661103834296499344 ..> C_0014742100438532397765
C_0010909994763714669153 ..|> C_0012128443205211338966
C_0011962857980239041894 ..> C_0010909994763714669153
C_0011962857980239041894 ..|> C_0001041169413378610760
C_0016992706117299322426 <|-- C_0011962857980239041894

'Generated with clang-uml, version 0.6.2
'LLVM version Ubuntu clang version 20.1.2 (0ubuntu1)
@enduml
